<svg id="Layer_1" data-name="Layer 1" xmlns="http://www.w3.org/2000/svg" viewBox="0 0 1000 700">
  <defs>
    <style>.cls-1 {
      fill: #fff;
    }

    .cls-2 {
      fill: #dfb2f2;
    }

    .cls-3 {
      fill: #ce8de0;
    }

    .cls-4 {
      fill: #f6deff;
    }

    .cls-5 {
      fill: #ff7ba9;
    }

    .cls-6 {
      fill: #f3417d;
    }

    .cls-7 {
      fill: #303030;
    }

    .cls-8 {
      fill: #171717;
    }

    .cls-9 {
      fill: #f5c698;
    }

    .cls-10 {
      fill: #ffdfbf;
    }

    .cls-11 {
      fill: #080c53;
    }</style>
  </defs>
  <rect class="cls-1" width="1000" height="700"/>
  <path class="cls-2"
        d="M741.3,363s68.31-59.28,54.56-104-63.58-33.51-63.58-33.51-1.89-50.71-49.77-25.21c0,0-37-46.41-87.69-34.23s-37,41.4-37,41.4S496,167.14,484,234.16s18.56,136.6,61.26,177S741.3,363,741.3,363Z"/>
  <path class="cls-3"
        d="M549.28,616.05s133.21-163.89,91.14-247.87-123.35-54-123.35-54S526.88,256.84,484,222s-89.29,0-89.29,0-27.46-54.13-71.08-47.69-41.05,49-41.05,49S227.15,204,198.8,225.9s-15.47,59.29-15.47,59.29-56.71-8.62-32.22,53.05c0,0-34.8,24.28-36.09,74.55s57.77,112.13,101.06,116,82.76,87.27,82.76,87.27Z"/>
  <path class="cls-4"
        d="M789.85,616.05s120.72-74.21,90.21-125.87C864.32,463.55,840.54,469,840.54,469s68.36-63.17,23.78-110.78c-26.9-28.73-61.59-18-61.59-18s5.16-58.16-75.6-73.54-107.51,47.5-107.51,47.5-29.1-32.81-66-14.77-37.71,51.85-19.76,74.75c0,0-78.18-14.61-97.94,50.69s72.56,191.27,72.56,191.27Z"/>
  <path class="cls-2"
        d="M827,616.05s58.53-23.9,29-75.18c-16.32-28.35-67.87-12-67.87-12s11.17-35.05-27.5-29.55c0,0,20.62-62.38-27.49-87.29s-74.51,16.32-74.51,16.32-15.08-54.12-46.75-54.12S571,405.13,571,405.13s-49.64-32.65-80.35,20.62c0,0-18.93-41.28-45.32-3.44,0,0-4.3-51.65-40.38-64.06s-73.89,15.95-73.89,15.95-17.18-67.88-70.45-49-27.49,67.87-27.49,67.87-84.2,2.58-31.79,82.48c0,0-60.14,8.59-56.71,77.32S179,616.05,179,616.05Z"/>
  <path class="cls-4"
        d="M233,617.46s-46.26-38.24-32.5-81.85S245.25,505,245.25,505s-8.23-26.62,11.48-31.18S280.29,475,280.29,475s-26.38-66.92,39.25-68c0,0-.61-30.33,30.12-19.88s15.39,59.74,15.39,59.74,24.78-13.46,51.13,21.2-11.35,71.58-11.35,71.58,34.2-27.36,56.86,8.49-24.13,69.3-24.13,69.3Z"/>
  <path class="cls-2" d="M873.64,618.86H119.9a1.4,1.4,0,0,1,0-2.79H873.64a1.4,1.4,0,1,1,0,2.79Z"/>
  <path class="cls-4"
        d="M595.77,129.17H824.52s-20.34-33.91-76.29-17c0,0-.7-13.56-13.06-16.1S714.33,102,714.33,102s-19.74-30.51-48.86-17.8,12.41,33.06,12.41,33.06Z"/>
  <path class="cls-4"
        d="M192.41,164H350.07l-45.77-7.63s22.88-22.75-8.48-32.71-29.66,16.74-29.66,16.74-23.74.47-19.5,12.74Z"/>
  <path class="cls-5" d="M518,307l-5.13-3.26-25.29,31L421.5,352.3l10,22C469.25,366.8,505.31,344.09,518,307Z"/>
  <path class="cls-6"
        d="M518,307c-12.71,37.08-48.77,59.79-86.51,67.28L438.23,389s47.45-14.69,60.65-33.46,23-46.1,23-46.1Z"/>
  <path class="cls-7"
        d="M523.5,372.93,452.07,480.87a14.55,14.55,0,0,0-2,4.39L416.45,613.87h66.66l4.94-124.26L548.8,397S555.28,367,523.5,372.93Z"/>
  <path class="cls-8"
        d="M525.3,372.63l-51.58,117-9.58-8.78-14.56,133h33.53l4.94-124.26L548.8,397S555,368.15,525.3,372.63Z"/>
  <path class="cls-8"
        d="M564.38,369.83a25.2,25.2,0,0,0-2.14-4.47l-38.74,7.57-.35,1.22C536.3,379.67,551.1,375.54,564.38,369.83Z"/>
  <path class="cls-7"
        d="M528.81,486l20-88.94c19.94-6.87,18.16-20.22,15.58-27.19-13.28,5.71-28.08,9.84-41.23,4.32L492.51,479.48a16.88,16.88,0,0,0-.7,8.25l20.72,126.14H579Z"/>
  <path class="cls-7"
        d="M590,265s-.34,3.57-1,9.37c-.2,1.65-.43,3.48-.69,5.46-2.45,18.55-7.56,50.28-15.86,70.05a64.4,64.4,0,0,1-4.08,8.23h0a25.49,25.49,0,0,1-6.09,7.26c-19.61,14.69-38.74,7.57-38.74,7.57-.54-2.47-1.12-4.79-1.73-7q-.84-3-1.74-5.64a101.63,101.63,0,0,0-5.53-13.14c-1.32-2.61-2.66-5-4-7.21-4.9-8.32-9.38-14.48-11-22.74a34.28,34.28,0,0,1-.65-6.93,47.44,47.44,0,0,1,.55-6.94,39.42,39.42,0,0,1,7.22-17c3.07,12.14,8.78,23.3,15.62,33.74q1.92,2.93,4,5.79,1.88,2.63,3.81,5.21,2.52-2.56,5-5.19c1.88-2,3.75-4,5.6-6,7.7-8.39,15.1-17.11,22-26.26q1.67-2.21,3.27-4.44,4.5-6.26,8.64-12.77c-9,.82-17.54,2.45-25.29,6.94l-.57.34c-2,1.23-3.94,2.57-5.92,3.92-9.24,6.34-18.66,13.07-30.23,10.42-.25-5.63-1.08-11.27-1.62-16.91l.34-.37c1.48-1.61,3-3.14,4.62-4.57a102.08,102.08,0,0,1,19-13.35h0c3.76-2.07,6.25-3.15,6.25-3.15l4.06.44Z"/>
  <path class="cls-8"
        d="M589,274.36c-.2,1.65-.43,3.48-.69,5.46-13.91-5.78-34.38-11.86-53.47-17,3.76-2.07,6.25-3.15,6.25-3.15l4.06.44C561,264.55,577,269.51,589,274.36Z"/>
  <path class="cls-8"
        d="M574.5,276.41c-9,.82-17.54,2.45-25.29,6.94-11.43,6.93-22.44,17.95-36.72,14.68-.25-5.63-1.08-11.27-1.62-16.91a58.58,58.58,0,0,0-4.21,5.22c4.17,16.51,13.2,31.19,23.37,44.74C546.35,314.36,561.86,296.4,574.5,276.41Z"/>
  <path class="cls-8"
        d="M579,613.87,528.81,486l20-88.94c20.74-7.14,18-21.3,15.27-28-4.27,8.75-12,20.11-24.42,23.55l-17.69,97-11.43-8,38.79,132.23Z"/>
  <path class="cls-9"
        d="M464.14,294.35l4.42,9.67L480,301.57l-4.35,6.26,5.71,10.33,22-32.37L501.84,283a93,93,0,0,1-14.24,6.86C480.15,292.92,471.87,292.32,464.14,294.35Z"/>
  <path class="cls-8"
        d="M515.83,276.18c10.22,1.95,21.82,4.47,32.81,7.51-2,1.23-3.94,2.57-5.92,3.92-10.76-2.78-21.9-5.09-31.51-6.86C512.69,279.14,514.24,277.61,515.83,276.18Z"/>
  <path class="cls-8"
        d="M584.44,298.45l-3.15,4.27a58.2,58.2,0,0,0-11.36-6.22L568.8,296q1.37-2.28,2.64-4.62l1,.43A63.31,63.31,0,0,1,584.44,298.45Z"/>
  <path class="cls-10" d="M462.84,291.51l1.3,2.84c7.73-2,16-1.43,23.46-4.48A93,93,0,0,0,501.84,283l-3.09-5.65Z"/>
  <path class="cls-8"
        d="M572.41,349.87a64.4,64.4,0,0,1-4.08,8.23h0a82.29,82.29,0,0,1-36.2,8.53c-1.94,0-3.77-.07-5.48-.19s-3.34-.3-4.88-.5q-.84-3-1.74-5.64a71.68,71.68,0,0,0,7.24.86C538.2,361.91,554.62,360.45,572.41,349.87Z"/>
  <path class="cls-8"
        d="M573.74,337.05c-17,9.82-31.35,12.63-42.24,12.63a58.46,58.46,0,0,1-10.3-.89,52.67,52.67,0,0,1-6.7-1.63c-1.32-2.61-2.66-5-4-7.21a46.77,46.77,0,0,0,11.92,3.68c14.79,2.53,31.62-1.33,48.64-11.17Z"/>
  <path class="cls-8"
        d="M580.43,308.83c-12.78,8.48-25.38,13.89-37.45,16.08a69,69,0,0,1-8,1c-1.43.1-2.84.14-4.25.14s-3,0-4.56-.16A60.83,60.83,0,0,1,514.93,324a56.82,56.82,0,0,1-15.4-6.74,34.28,34.28,0,0,1-.65-6.93,50.91,50.91,0,0,0,17.73,8.62,51.68,51.68,0,0,0,5.66,1.18,59.32,59.32,0,0,0,18.36-.2c11.81-1.89,24.24-7.09,36.87-15.47Z"/>
  <path class="cls-8"
        d="M583.23,193c-.84,0-1.71.07-2.61.17-18,2-18.15,18.57-18.15,18.57l12.77-1.33A20.38,20.38,0,0,1,583.23,193Z"/>
  <path class="cls-7" d="M583.23,193a20.38,20.38,0,0,0-8,17.41l28.44-3S599.07,192.73,583.23,193Z"/>
  <path class="cls-11" d="M562.47,211.74s-2.65,15.71,10.2,20.2,2.05-21.47,2.05-21.47Z"/>
  <path class="cls-6" d="M583.07,230.3l-10.4-10.81-2.39,5a31.71,31.71,0,0,0,7.35,13.9A22.94,22.94,0,0,1,583.07,230.3Z"/>
  <path class="cls-5" d="M570.28,224.46,554.1,258.05l20.4,1.63s-1-11.63,3.13-21.32A31.71,31.71,0,0,1,570.28,224.46Z"/>
  <path class="cls-5"
        d="M601.64,210s5.91,19.89,2,24.78c-2.59,3.27-14.92,0-22.82-2.55a11.25,11.25,0,0,1-7.7-9.19l-.49-3.56s-6.12.82-4.29-7.75Z"/>
  <path class="cls-8" d="M559.4,215a2.86,2.86,0,0,1-.25-5.7L606.07,205a2.86,2.86,0,0,1,.52,5.69L559.67,215Z"/>
  <path class="cls-7"
        d="M570.6,269.2c-4.43.14-13.66,10.53-21.82,21,6.68,2.61,11,8.72,13.59,15.58a127.24,127.24,0,0,0,14.87-26.57C578.51,273,576.83,269,570.6,269.2Z"/>
  <path class="cls-8"
        d="M577.25,279.17a53.86,53.86,0,0,1-4.82,12.65c-.76,1.52-1.6,3.08-2.5,4.68-2,3.62-4.36,7.39-6.88,11.18-.21-.66-.44-1.3-.68-1.94Q565.8,301,568.8,296q1.37-2.28,2.64-4.62A124,124,0,0,0,577.25,279.17Z"/>
  <path class="cls-9"
        d="M590.42,332.31c4.08-22.85,18.76-49,.81-68.14-12.65-13.06-32.64-8.57-49.37-6.12-7.24,1.17-13.41,4.48-19.2,8.62,124-13,13.93,40.11,29,94.61,10,36.12,54.23,44.27,84.36,27.12a65.28,65.28,0,0,1-38.25-18.15C588,360.46,588,345.77,590.42,332.31Z"/>
  <path class="cls-10"
        d="M664.68,342.51c4.48-64.06-48.69-92.89-77-97.52s-56.85,13.33-56.85,13.33l-9,8.43.79-.08c5.79-4.14,12-7.45,19.2-8.62,16.73-2.45,36.72-6.94,49.37,6.12,17.95,19.18,3.27,45.29-.81,68.14-2.45,13.46-2.45,28.15,7.34,37.94A65.28,65.28,0,0,0,636,388.4C651.43,379.62,663.16,364.2,664.68,342.51Z"/>
  <polygon class="cls-8" points="578.97 613.87 491.12 613.87 571.28 594.27 578.97 613.87"/>
  <polygon class="cls-8" points="483.11 613.87 394.98 613.87 483.89 594.27 483.11 613.87"/>
  <path class="cls-6"
        d="M434.91,339.85l-.08.07c-3.34,3.5-1.2,13.95,4.31,19.58a10.9,10.9,0,0,0,8.74,3.65C459.23,362.24,439.43,335.72,434.91,339.85Z"/>
  <path class="cls-10"
        d="M444.35,459.88c28.83-1.09,45.42-55.57-4.08-86.95,0,0-8.71-34.91-3.54-47.69l-4.83,2.35c-3.74,9.53-2.35,21.37,1,31.24,5.31,15.5,13.47,31.42,7.35,48.14-6.27,16.52-10.14,36-4.57,52.38A41,41,0,0,0,444.35,459.88Z"/>
  <path class="cls-9"
        d="M440.27,407c6.12-16.72-2-32.64-7.35-48.14-3.37-9.87-4.76-21.71-1-31.24L425,331l-15.77-1.36s19.31,26.48,20.67,45.06-17.68,30.83-19,46.06c-1.21,13.57,3.4,34.91,24.81,38.64C430.13,443,434,423.49,440.27,407Z"/>
  <path class="cls-8"
        d="M604.19,221.05l-2.45-2.27s-.31,3.57-6,3.57-7.65-6.12-7.65-6.12l-14.5-2.51L602,211.13a7.28,7.28,0,0,1,1.19,2.27,21.26,21.26,0,0,1,1,5.07C604.21,220,604.19,221.05,604.19,221.05Z"/>
  <path class="cls-5"
        d="M599.49,216.64c0,1.57-1.82,2.85-4.08,2.85s-4.08-1.28-4.08-2.85,1.83-2.86,4.08-2.86S599.49,215.06,599.49,216.64Z"/>
  <path class="cls-5"
        d="M604.09,218.47c-1.6-.38-2.76-1.45-2.76-2.7a2.77,2.77,0,0,1,1.81-2.37A21.26,21.26,0,0,1,604.09,218.47Z"/>
  <path class="cls-11" d="M595.67,218.78a.83.83,0,0,1-.8-.64l-.66-3a.82.82,0,0,1,1.59-.36l.67,3a.83.83,0,0,1-.62,1Z"/>
  <path class="cls-11"
        d="M603.21,217.78a.66.66,0,0,1-.64-.51l-.54-2.38a.66.66,0,0,1,1.29-.29l.53,2.38a.66.66,0,0,1-.5.79Z"/>
  <path class="cls-6"
        d="M598.88,229.9c0,.9-1.41,1.63-3.16,1.63s-3.16-.73-3.16-1.63,1.41-1.64,3.16-1.64S598.88,229,598.88,229.9Z"/>
  <path class="cls-6"
        d="M418.23,355.16a13.25,13.25,0,0,1,4.9-9c2.8-1.87,5.84-1.6,8.75-.82-3.71-2.66-8.4-3.27-13.92-.27-12.06,6.55,4.18,42.07,17.46,37.77a6.91,6.91,0,0,0,3.32-2.43C426.6,380.08,417.23,368.17,418.23,355.16Z"/>
  <path class="cls-5"
        d="M431.88,345.36c-2.91-.78-5.95-1.05-8.75.82a13.25,13.25,0,0,0-4.9,9c-1,13,8.37,24.92,20.51,25.27C444.57,372.94,441.5,352.25,431.88,345.36Z"/>
  <polygon class="cls-6" points="487.6 334.76 501.84 330.54 491.04 330.54 487.6 334.76"/>
  <path class="cls-6"
        d="M562.37,305.74a132,132,0,0,1-34.79,33.1c-17.13-15.92-28.56-37.95-30.19-61.21-4.49,2-10.61,4.08-13.87.41a10.06,10.06,0,0,1-1.66-8.62,14.07,14.07,0,0,0-1.88,6.31c.27,11.42,7.34,7.89,7.34,7.89,5.17,24.61,27,48.12,37.19,58a7.82,7.82,0,0,0,10.84,0c8.3-7.91,19.09-21,27.7-34C562.84,307,562.61,306.38,562.37,305.74Z"/>
  <path class="cls-6"
        d="M521.46,263.35c-.41,2,0,3.68,1.63,4.49,6.75,2.84,16-.81,21.48,4.13.29-1.08-.11-2.35-1.48-3.58-2.85-2.55-9-2.79-13.94-2.49a2.46,2.46,0,0,1-1.85-4.25l3.55-3.33c-.6-.84-1.21-1.61-1.83-2.34C525.93,257.75,523,260,521.46,263.35Z"/>
  <path class="cls-5"
        d="M548.52,290.49c-8.18,10.47-15.23,20.87-15.23,20.87L525.41,282c7.61-3.54,7.07-9.8,7.07-9.8,5.31,4.35,11.31,2.76,12.09-.22-5.5-4.94-14.73-1.29-21.48-4.13-1.63-.81-2-2.45-1.63-4.49,1.54-3.38,4.47-5.6,7.56-7.37-16.42-19.31-40.33.25-47.16,13.44a10.06,10.06,0,0,0,1.66,8.62c3.26,3.67,9.38,1.63,13.87-.41,1.63,23.26,13.06,45.29,30.19,61.21a131.34,131.34,0,0,0,32.17-29.64C558.77,301.5,555.76,293.71,548.52,290.49Z"/>
  <path class="cls-6"
        d="M548.78,290.16l-.26.33c7.24,3.22,10.25,11,11.23,18.71.89-1.14,1.77-2.29,2.62-3.46C559.78,298.88,555.46,292.77,548.78,290.16Z"/>
  <polygon class="cls-6" points="533.29 311.36 537.37 327.82 536.78 306.35 533.29 311.36"/>
  <ellipse class="cls-9" cx="615.08" cy="360.08" rx="12.07" ry="18.59"
           transform="translate(43.76 786.2) rotate(-67.06)"/>
  <ellipse class="cls-9" cx="457.94" cy="429.19" rx="8.36" ry="16.09"/>
</svg>
